<svg viewBox="0 0 396.62 500" xmlns="http://www.w3.org/2000/svg" xmlns:xlink="http://www.w3.org/1999/xlink"><linearGradient id="a" gradientUnits="userSpaceOnUse" x1="101.94" x2="389.84" y1="197.18" y2="197.18"><stop offset=".21" stop-color="#fff" stop-opacity="0"/><stop offset="1" stop-color="#fff" stop-opacity=".2"/></linearGradient><path d="m21.36 477.8-21.36-12.22 31.96-18.29 21.35 12.21z" fill="#d6d8e5" opacity=".4"/><path d="m21.8 453.17-17.69-10.21 17.69-10.21 17.68 10.21z" fill="#d6d8e5"/><path d="m21.8 473.59-17.69-10.21v-20.42l17.69 10.21z" fill="#b1b6c4"/><path d="m39.49 463.38-17.69 10.21v-20.42l17.69-10.21z" fill="#c4c7d6"/><path d="m45.57 457a6 6 0 0 0 4.55-.55c1.1 0 7.06-2.51 7.87-.37.71 1.87-1.87 3.61-3.25 3.94-3 .73-5.24 2.23-6.45 2.49a3 3 0 0 1 -2.78-.4c-.86-.9-.78-4.04.06-5.11z" fill="#38226d"/><path d="m48.29 461.94c1.21-.26 3.44-1.76 6.45-2.49 1.15-.28 3.14-1.54 3.34-3.05.27 1.73-2.06 3.26-3.34 3.57-3 .73-5.24 2.23-6.45 2.49a3 3 0 0 1 -2.78-.4 1.59 1.59 0 0 1 -.39-.72 3.59 3.59 0 0 0 3.17.6z" fill="#9c73ff"/><path d="m34.83 451.23a6 6 0 0 0 4.55-.55c1.1 0 7-2.51 7.86-.37.71 1.87-1.87 3.61-3.24 3.94-3 .73-5.24 2.23-6.45 2.49a3 3 0 0 1 -2.78-.4c-.86-.85-.77-3.99.06-5.11z" fill="#38226d"/><path d="m37.55 456.22c1.21-.26 3.44-1.76 6.45-2.49 1.15-.28 3.14-1.54 3.34-3.05.27 1.73-2.06 3.26-3.34 3.57-3 .73-5.24 2.23-6.45 2.49a3 3 0 0 1 -2.78-.4 1.61 1.61 0 0 1 -.39-.71 3.61 3.61 0 0 0 3.17.59z" fill="#9c73ff"/><path d="m18.1 443.82c4.65 2 9 2.36 12.61.44l3.7-2.14c.22 4.78.43 9.37.43 9.37s2.84 2.15 5 .23c0 0 .46-6.7.93-13.3l3.88-2.24a4.51 4.51 0 0 0 -.15 1.08c0 1.25.9 19.88.9 19.88s2.86 1.7 5.07-.21c0 0 1.49-21.59 1.83-25 .38-3.88-3.92-5.79-6.65-4.8l-4.16 1.55.2-2.4c.39-3.88-3.92-5.79-6.64-4.8-2.48.91-19.24 7.19-19.24 7.19a42.16 42.16 0 0 0 .59 4.81l-6.62-.56c-.35 6.19 3.68 8.86 8.32 10.9zm11.56-10.73 4.43-2.55a5.59 5.59 0 0 0 -.14.95z" fill="#8c50ff"/><path d="m6.2 414s.54 8.23 1.62 9.42 4.74 2 4.74 2l2.81 4.58s-2.57-14.68-3.13-15-6.04-1-6.04-1z" fill="#ffcea9"/><path d="m11.61 404.85a3.09 3.09 0 0 0 -3.92 1.15c-1 1.71-2.11 7.6-2.21 8.6a4.15 4.15 0 0 0 3.63 1.67z" fill="#ededed"/><path d="m12.6 405c1.42.07 2.48.43 2.66 0a18.1 18.1 0 0 0 .32-2.22c-.16-.42-.3-.86-.3-.86-1.79-1.1-2.35-3-2.59-5.28-.4-3.85 1.68-7.21 5.52-7.61 3.62-.38 6.28 2.16 7 5.65.38 1.72 1.14 5 .11 7.81-.57 1.58-1.31 2.84-2 3.08a17.07 17.07 0 0 1 -2.14-.18s-.19 1.07-.32 1.75-.09 1.05 1.28 1.89-2.06 2.57-4.3 2.4-4.76-1.52-5.45-3c-.83-1.62-.77-3.52.21-3.43z" fill="#ffcea9"/><path d="m48.66 430.15a1.16 1.16 0 0 1 -.58 1l-10.85 6.26a1.15 1.15 0 0 1 -1.16 0l-15.2-8.78a1.14 1.14 0 0 1 -.58-1v-.08z" fill="#e5e5e5"/><path d="m48.08 431.15-10.85 6.26a1.1 1.1 0 0 1 -.58.16v-7.42h12a1.16 1.16 0 0 1 -.57 1z" fill="#e5e5e5"/><path d="m37.06 436.84a.79.79 0 0 1 -.81 0l-15.81-9.12c-.2-.12-.2-.31 0-.42l11.64-6.73 16.58 9.58z" fill="#f4f4f4"/><path d="m26.93 430.15.08.04 5.07 2.93 2.78-1.61.08-.04-5.15-2.97z" fill="#bfbfbf"/><path d="m27.01 430.19 5.07 2.93 2.78-1.61-5.07-2.92z" fill="#e5e5e5"/><g fill="#3a2c6d"><path d="m44.36 430.62.73.42a.24.24 0 0 0 .23 0l.7-.4c.07 0 .08-.1 0-.13l-.73-.43a.27.27 0 0 0 -.23 0l-.7.41c-.05.04-.06.1 0 .13z"/><path d="m43.33 430 .73.42a.24.24 0 0 0 .23 0l.7-.4c.07 0 .07-.1 0-.13l-.73-.42a.24.24 0 0 0 -.23 0l-.7.4c-.05.06-.06.13 0 .13z"/><path d="m42.29 429.43.73.42a.29.29 0 0 0 .24 0l.69-.4c.07 0 .08-.1 0-.14l-.73-.42a.24.24 0 0 0 -.23 0l-.7.4c-.05.04-.06.1 0 .14z"/><path d="m41.26 428.83.73.42a.27.27 0 0 0 .23 0l.7-.4c.07 0 .08-.1 0-.14l-.73-.42a.29.29 0 0 0 -.24 0l-.69.4c-.05.04-.06.1 0 .14z"/><path d="m40.22 428.23.74.42a.24.24 0 0 0 .23 0l.69-.4c.07 0 .08-.1 0-.13l-.73-.43a.27.27 0 0 0 -.23 0l-.7.41c-.05.04-.06.1 0 .13z"/><path d="m39.19 427.63.73.43a.27.27 0 0 0 .23 0l.7-.41c.07 0 .08-.1 0-.13l-.73-.42a.26.26 0 0 0 -.24 0l-.69.4c-.05.04-.06.1 0 .13z"/><path d="m38.16 427 .73.42a.27.27 0 0 0 .23 0l.7-.4c.07 0 .07-.1 0-.14l-.73-.42a.27.27 0 0 0 -.23 0l-.7.4c-.06.08-.06.14 0 .14z"/><path d="m37.12 426.44.73.42a.24.24 0 0 0 .23 0l.7-.4c.07 0 .08-.1 0-.13l-.73-.43a.27.27 0 0 0 -.23 0l-.7.41c-.05.04-.06.1 0 .13z"/><path d="m36.09 425.84.73.42a.24.24 0 0 0 .23 0l.7-.4c.07 0 .07-.1 0-.13l-.75-.43a.24.24 0 0 0 -.23 0l-.7.4c-.07.05-.07.11.02.14z"/><path d="m35.05 425.25.73.42a.29.29 0 0 0 .24 0l.69-.4c.07 0 .08-.1 0-.14l-.71-.43a.24.24 0 0 0 -.23 0l-.7.4c-.07.05-.07.11-.02.15z"/><path d="m34 424.65.73.42a.27.27 0 0 0 .23 0l.7-.4c.07 0 .08-.1 0-.14l-.66-.43a.29.29 0 0 0 -.24 0l-.69.4c-.07.05-.07.11-.07.15z"/><path d="m33 424.05.74.42a.24.24 0 0 0 .23 0l.7-.4c.06 0 .07-.1 0-.13l-.73-.43a.27.27 0 0 0 -.23 0l-.7.41c-.08.08-.08.08-.01.13z"/><path d="m32 423.45.73.43a.27.27 0 0 0 .23 0l.7-.41c.07 0 .08-.1 0-.13l-.73-.42a.26.26 0 0 0 -.24 0l-.69.4c-.1.04-.11.1 0 .13z"/><path d="m30.42 422.57 1.23.71a.27.27 0 0 0 .23 0l.7-.4c.07 0 .07-.1 0-.14l-1.22-.74a.27.27 0 0 0 -.23 0l-.7.41a.07.07 0 0 0 -.01.16z"/><path d="m41.82 430.31.74.42a.24.24 0 0 0 .23 0l.7-.4c.06 0 .07-.1 0-.13l-.73-.42a.24.24 0 0 0 -.23 0l-.7.4c-.06.04-.06.1-.01.13z"/><path d="m40.79 429.71.73.43a.27.27 0 0 0 .23 0l.7-.41c.07 0 .08-.1 0-.13l-.73-.42a.26.26 0 0 0 -.24 0l-.69.4c-.05.04-.06.1 0 .13z"/><path d="m39.75 429.12.73.42a.29.29 0 0 0 .24 0l.69-.4c.07 0 .08-.1 0-.14l-.73-.42a.27.27 0 0 0 -.23 0l-.7.4c-.05.02-.06.1 0 .14z"/><path d="m38.72 428.52.73.42a.27.27 0 0 0 .23 0l.7-.4c.07 0 .07-.1 0-.14l-.73-.42a.27.27 0 0 0 -.23 0l-.7.4c-.06.04-.06.1 0 .14z"/><path d="m37.69 427.92.73.43a.27.27 0 0 0 .23 0l.7-.41c.07 0 .08-.1 0-.13l-.73-.42a.26.26 0 0 0 -.24 0l-.69.4c-.05.04-.06.1 0 .13z"/><path d="m36.65 427.33.73.42a.29.29 0 0 0 .24 0l.69-.4c.07 0 .08-.1 0-.14l-.73-.42a.27.27 0 0 0 -.23 0l-.7.4c-.05.04-.06.1 0 .14z"/><path d="m35.62 426.73.73.42a.27.27 0 0 0 .23 0l.7-.4c.07 0 .07-.1 0-.14l-.73-.42a.27.27 0 0 0 -.23 0l-.7.4c-.06.04-.06.1 0 .14z"/><path d="m34.58 426.13.73.42a.24.24 0 0 0 .23 0l.7-.4c.07 0 .08-.1 0-.13l-.73-.43a.29.29 0 0 0 -.24 0l-.69.41c-.05 0-.06.1 0 .13z"/><path d="m33.54 425.53.74.42a.24.24 0 0 0 .23 0l.7-.4c.06 0 .07-.1 0-.13l-.73-.42a.24.24 0 0 0 -.23 0l-.7.4c-.06.04-.06.1-.01.13z"/><path d="m32.51 424.93.73.43a.27.27 0 0 0 .23 0l.7-.41c.07 0 .08-.1 0-.13l-.73-.42a.26.26 0 0 0 -.24 0l-.69.4c-.05.04-.06.1 0 .13z"/><path d="m31.47 424.34.73.42a.29.29 0 0 0 .24 0l.69-.4c.07 0 .08-.1 0-.14l-.73-.42a.27.27 0 0 0 -.23 0l-.7.4c-.05.04-.06.1 0 .14z"/><path d="m30.44 423.74.73.42a.27.27 0 0 0 .23 0l.7-.4c.07 0 .07-.1 0-.14l-.73-.42a.27.27 0 0 0 -.23 0l-.7.4c-.06.04-.06.1 0 .14z"/><path d="m42.86 430.91 1.23.71a.27.27 0 0 0 .23 0l.7-.4c.07 0 .08-.1 0-.14l-1.23-.71a.29.29 0 0 0 -.24 0l-.69.41c-.05.04-.06.1 0 .13z"/><path d="m30.35 422.6.73.42c.06 0 .06.09 0 .13l-.74.42a.2.2 0 0 1 -.21 0h-.06a.23.23 0 0 0 -.2 0l-.78.45a.28.28 0 0 1 -.22 0l-.46-.27c-.06 0-.06-.09 0-.13l.73-.42.15-.08.11-.07.11-.06.62-.36a.22.22 0 0 1 .22-.03z"/><path d="m40.35 432.93.73.42a.24.24 0 0 0 .23 0l.7-.4c.07 0 .07-.1 0-.13l-.73-.42a.24.24 0 0 0 -.23 0l-.7.4c-.05.04-.06.1 0 .13z"/><path d="m39.32 432.34.73.42a.27.27 0 0 0 .23 0l.7-.4c.07 0 .07-.1 0-.14l-.73-.42a.27.27 0 0 0 -.23 0l-.7.4c-.06.04-.06.1 0 .14z"/><path d="m38.28 431.74.74.42a.24.24 0 0 0 .23 0l.7-.4c.06 0 .07-.1 0-.13l-.73-.42a.24.24 0 0 0 -.23 0l-.7.41c-.06.03-.06.09-.01.12z"/><path d="m29.5 426.67.73.42a.26.26 0 0 0 .24 0l.69-.4c.07 0 .08-.1 0-.13l-.73-.43a.27.27 0 0 0 -.23 0l-.7.41c-.05.04-.06.1 0 .13z"/><path d="m28.47 426.08.73.42a.27.27 0 0 0 .23 0l.7-.41c.07 0 .08-.09 0-.13l-.73-.42a.26.26 0 0 0 -.24 0l-.69.4c-.05.06-.06.06 0 .14z"/><path d="m27.44 425.48.73.42a.24.24 0 0 0 .23 0l.7-.4c.07 0 .08-.1 0-.13l-.73-.43a.29.29 0 0 0 -.24 0l-.69.41c-.05.04-.06.1 0 .13z"/><path d="m26.41 424.88.73.43a.27.27 0 0 0 .23 0l.7-.41c.07 0 .07-.1 0-.13l-.74-.42a.24.24 0 0 0 -.23 0l-.7.4c-.04.04-.05.1.01.13z"/><path d="m37 431 1 .58a.29.29 0 0 0 .24 0l.69-.4c.07 0 .08-.1 0-.14l-1-.57a.24.24 0 0 0 -.23 0l-.7.4c-.06.03-.07.13 0 .13z"/><path d="m30.53 427.27 1 .57a.24.24 0 0 0 .23 0l.7-.4c.07 0 .08-.1 0-.14l-1-.57a.27.27 0 0 0 -.23 0l-.7.4c-.05.04-.06.1 0 .14z"/><path d="m31.83 428 4.86 2.81a.27.27 0 0 0 .23 0l.7-.4c.07 0 .07-.1 0-.14l-4.85-2.8a.26.26 0 0 0 -.24 0l-.69.4c-.06.05-.07.13-.01.13z"/><path d="m40.54 430.73.73.42a.24.24 0 0 0 .23 0l.7-.4c.07 0 .08-.1 0-.14l-.73-.42a.29.29 0 0 0 -.24 0l-.69.4c-.05.04-.06.1 0 .14z"/><path d="m39.51 430.13.73.42a.24.24 0 0 0 .23 0l.7-.4c.07 0 .07-.1 0-.13l-.73-.42a.24.24 0 0 0 -.23 0l-.7.4c-.05 0-.06.1 0 .13z"/><path d="m38.47 429.54.74.42a.27.27 0 0 0 .23 0l.7-.4c.06 0 .07-.1 0-.14l-.73-.42a.27.27 0 0 0 -.23 0l-.7.4c-.06.04-.06.1-.01.14z"/><path d="m37.44 428.94.73.42a.24.24 0 0 0 .23 0l.7-.4c.07 0 .08-.1 0-.14l-.73-.42a.27.27 0 0 0 -.23 0l-.7.41c-.05.04-.06.1 0 .13z"/><path d="m36.41 428.34.73.42a.24.24 0 0 0 .23 0l.7-.41c.07 0 .08-.1 0-.13l-.73-.42a.26.26 0 0 0 -.24 0l-.69.4c-.05.05-.06.11 0 .14z"/><path d="m35.38 427.75.73.42a.27.27 0 0 0 .23 0l.7-.4c.06 0 .07-.1 0-.14l-.73-.42a.27.27 0 0 0 -.23 0l-.7.4c-.06.04-.06.1 0 .14z"/><path d="m34.34 427.15.73.42a.26.26 0 0 0 .24 0l.69-.4c.07 0 .08-.1 0-.13l-.73-.43a.27.27 0 0 0 -.23 0l-.7.41c-.05.04-.06.1 0 .13z"/><path d="m33.31 426.55.69.45a.27.27 0 0 0 .23 0l.7-.41c.07 0 .08-.1 0-.13l-.73-.42a.26.26 0 0 0 -.24 0l-.69.4c-.01.02-.02.08.04.11z"/><path d="m32.28 426 .73.42a.27.27 0 0 0 .23 0l.7-.4c.07 0 .07-.1 0-.14l-.73-.42a.27.27 0 0 0 -.23 0l-.7.4c-.06 0-.06.06 0 .14z"/><path d="m31.24 425.36.73.42a.26.26 0 0 0 .24 0l.69-.4c.07 0 .08-.1 0-.13l-.73-.43a.27.27 0 0 0 -.23 0l-.7.41c-.05.04-.06.1 0 .13z"/><path d="m30.21 424.76.73.43a.27.27 0 0 0 .23 0l.7-.41c.07 0 .08-.1 0-.13l-.73-.42a.26.26 0 0 0 -.24 0l-.69.4c-.05.04-.06.1 0 .13z"/><path d="m29.18 424.17.73.42a.27.27 0 0 0 .23 0l.7-.4c.07 0 .07-.1 0-.14l-.73-.42a.27.27 0 0 0 -.23 0l-.7.4c-.06.04-.06.1 0 .14z"/><path d="m41.57 431.33 1.52.87a.27.27 0 0 0 .23 0l.69-.4c.07 0 .08-.1 0-.14l-1.51-.87a.24.24 0 0 0 -.23 0l-.7.4c-.05.04-.06.1 0 .14z"/><path d="m40.05 431.6.73.43a.27.27 0 0 0 .23 0l.7-.41c.07 0 .08-.1 0-.13l-.73-.42a.24.24 0 0 0 -.23 0l-.7.4c-.05.04-.05.1 0 .13z"/><path d="m39 431 .73.42a.27.27 0 0 0 .23 0l.7-.4c.07 0 .08-.1 0-.14l-.74-.42a.27.27 0 0 0 -.23 0l-.69.4z"/><path d="m38 430.41.73.42a.24.24 0 0 0 .23 0l.7-.4c.06 0 .07-.1 0-.13l-.73-.43a.27.27 0 0 0 -.23 0l-.7.41c-.07.04-.07.1 0 .13z"/><path d="m37 429.81.73.43a.29.29 0 0 0 .24 0l.69-.41c.07 0 .08-.1 0-.13l-.73-.42a.24.24 0 0 0 -.23 0l-.7.4c-.1.04-.11.1 0 .13z"/><path d="m35.92 429.22.73.42a.27.27 0 0 0 .23 0l.7-.4c.07 0 .08-.1 0-.14l-.73-.42a.29.29 0 0 0 -.24 0l-.69.4c-.05.04-.06.1 0 .14z"/><path d="m34.89 428.62.73.42a.24.24 0 0 0 .23 0l.7-.4c.07 0 .07-.1 0-.13l-.73-.42a.24.24 0 0 0 -.23 0l-.7.4c-.06.04-.06.1 0 .13z"/><path d="m33.85 428 .73.42a.29.29 0 0 0 .24 0l.69-.4c.07 0 .08-.1 0-.14l-.73-.42a.24.24 0 0 0 -.23 0l-.7.4c-.05.07-.06.14 0 .14z"/><path d="m32.82 427.43.73.42a.24.24 0 0 0 .23 0l.7-.4c.07 0 .08-.1 0-.14l-.73-.42a.29.29 0 0 0 -.24 0l-.69.41c-.05.03-.06.09 0 .13z"/><path d="m31.79 426.83.73.42a.26.26 0 0 0 .23 0l.7-.41c.07 0 .07-.1 0-.13l-.74-.42a.24.24 0 0 0 -.23 0l-.7.4c-.04.05-.05.11.01.14z"/><path d="m30.76 426.24.73.42a.27.27 0 0 0 .23 0l.7-.4c.06 0 .07-.1 0-.14l-.73-.42a.27.27 0 0 0 -.23 0l-.7.4c-.06.04-.06.1 0 .14z"/><path d="m29.72 425.64.73.42a.26.26 0 0 0 .24 0l.69-.4c.07 0 .08-.1 0-.13l-.73-.43a.27.27 0 0 0 -.23 0l-.7.41c-.05.04-.06.1 0 .13z"/><path d="m27.41 424.31 2 1.16a.27.27 0 0 0 .23 0l.7-.41c.07 0 .08-.1 0-.13l-2-1.16a.26.26 0 0 0 -.24 0l-.69.4c-.05.04-.06.1 0 .14z"/><path d="m41.08 432.2 1 .58a.27.27 0 0 0 .23 0l.7-.41c.07 0 .08-.1 0-.13l-1-.58a.27.27 0 0 0 -.23 0l-.7.41c-.08.04-.08.1 0 .13z"/></g><path d="m48.66 430.15-16.58-9.58v-13l.13-.3.13-.06a1.13 1.13 0 0 1 1.15 0l15.17 8.75a1.17 1.17 0 0 1 .57 1v12.24c-.11.59-.23.74-.57.95z" fill="#e5e5e5"/><path d="m47.14 417.51-15.06-9.51v-.43l.13-.3.13-.06a1.13 1.13 0 0 1 1.15 0l15.17 8.75a1.06 1.06 0 0 1 .43.46z" fill="#e5e5e5"/><path d="m32.46 407.24 15.92 9.19a.57.57 0 0 1 .28.48v13.24l-16.58-9.58v-13.11a.25.25 0 0 1 .38-.22z" fill="#dceeff"/><path d="m32.46 407.24 15.92 9.19a.57.57 0 0 1 .28.48v13.24l-16.58-9.58v-13.11a.25.25 0 0 1 .38-.22z" fill="#f4f4f4"/><path d="m48.66 430.15v-.48l-16.58-9.57v.47z" fill="#dbdbdb"/><path d="m32.51 419.88v-11.95l.2.11v11.74z" fill="#1e3779"/><path d="m32.71 408.04v11.74l15.42 8.87v-11.71z" fill="#3a2c6d"/><path d="m32.51 419.88 15.62 9.01v-.24l-15.42-8.87z" fill="#031f60"/><path d="m14.66 405.17c-.4 1 .61 2.18 3.28 3s2.91-.24 2.91-.24a53.58 53.58 0 0 1 5.2 2.68c1.6 1.12 2.31 4.37 2.53 9.85.25 6.34.27 15.74.06 17.37 0 0-3 3-6.83 2.67s-10.3-3.71-11.86-6.33c0-5.56.69-6.47-.21-9.67-2.06-7.33-3.15-10.33-2.14-15.21.82-4 2-4.51 3.57-4.47a33.36 33.36 0 0 1 3.49.35z" fill="#f4f4f4"/><path d="m34.89 427.27c-3.15.8-3.89-1.19-4.3-2.83-1-4-1.54-7.58-2.29-9.84-.88-2.66-1.8-3.09-3.1-3.61-1.51-.61-2.82.68-2.32 4.07a68.31 68.31 0 0 0 2.89 11.58 10.25 10.25 0 0 0 2.58 4.5c1.63 1.32 4.08 1.26 7.78.34a42.6 42.6 0 0 0 6.3-2.73c.8-.37 1.42-.62 3-1.34a10.44 10.44 0 0 0 4-3.08c.8-1.17.91-1.72.75-2s-.58-.26-1 .23a8.55 8.55 0 0 1 -2.26 2.09s1-1 1.53-1.69a8.58 8.58 0 0 0 1.19-2c.29-.68-.3-1.6-.75-1.12s-.65 1-1.47 2a8.28 8.28 0 0 1 -1.46 1.39 15.79 15.79 0 0 0 1.35-2.16 3.67 3.67 0 0 0 .49-2c0-.35-.53-.77-1-.1a12.84 12.84 0 0 1 -1.8 2.65c-.72.75-1.33 1.18-1.35 1s.44-.62.69-1.48 0-1.79-.48-1.89-.39-.08-.77.74a22.32 22.32 0 0 0 -1.43 2.6 5.4 5.4 0 0 1 -1.3 2.23c-.76.79-2.47 1.7-5.47 2.45z" fill="#ffcea9"/><path d="m24 410.45c2.1-.31 3.59.64 4.52 3.82s1.57 5.8 1.57 5.8a5.7 5.7 0 0 1 -3.52 2.34c-2.51.61-3.42-.59-3.42-.59s-.7-3.34-1.13-5.61-.58-5.38 1.98-5.76z" fill="#ededed"/><path d="m25.08 394.14s3.32-5.05-3.88-6.08c-5.19-.74-8.53 2.59-8.91 6.21-.37 3.46 1.76 7.05 3.29 8.48a6.27 6.27 0 0 0 4.49-.54 25.63 25.63 0 0 0 .1-2.84s-2.53-5.32 4.91-5.23z" fill="#3a2c6d"/><path d="m39.49 458.05v-15.17l-12.05 7.03 4.64 9.59z" fill="#c4c7d6"/><path d="m31.59 443.75 4.62-2.68 3.27 1.89-4.79 2.72z" fill="#d6d8e5"/><path d="m222.1 375-56.92-32.86c-4.11-2.37-3.59-6.51 1.15-9.25l36.88-21.29 71.79 41.48-36.87 21.29c-4.75 2.74-11.92 3.03-16.03.63z" fill="#d6d8e5" opacity=".4"/><path d="m226.26 372.59-56.93-32.87c-4.1-2.37-3.58-6.5 1.15-9.24l36.88-21.29 71.79 41.44-36.88 21.3c-4.74 2.73-11.91 3.07-16.01.66z" fill="#b1b4c4"/><path d="m279.15 350.63v-2.17l-3.31 1.91z" fill="#b1b4c4"/><path d="m166.56 335.81v-2.21l3.41 1.41z" fill="#b1b4c4"/><path d="m226.26 370.42-56.93-32.87c-4.1-2.37-3.58-6.51 1.15-9.24l36.88-21.31 71.79 41.45-36.88 21.29c-4.74 2.75-11.91 3.04-16.01.68z" fill="#d6d8e5"/><path d="m207.56 307.11-8.89-29.48 72.57 41.63 7.91 29.2z" fill="#9ea1af"/><path d="m277.05 349.67 2.1-1.21-3.15-2.46z" fill="#9ea1af"/><path d="m205.27 308.22-8.89-29.48 72.57 41.63 8.1 29.3z" fill="#b1b4c4"/><path d="m389.49 399.35-280.91-162.18c-3.94-2.28-7.13-8.38-7.13-13.63v-217.29c0-5.25 3.19-7.67 7.13-5.39l280.91 162.14c3.94 2.27 7.13 8.37 7.13 13.63v217.37c0 5.21-3.19 7.63-7.13 5.35z" fill="#c4c7d6"/><path d="m390.93 401.59 3.12-1.79-1.35-9.23z" fill="#c4c7d6"/><path d="m100.94 2.19 3.06-1.76 4.4 2.51s-4.69.71-4.8.68-2.66-1.43-2.66-1.43z" fill="#b1b4c4"/><path d="m386.91 400.84-280.91-162.18c-3.94-2.28-7.14-8.38-7.14-13.63v-217.29c0-5.26 3.2-7.67 7.14-5.4l280.9 162.18c3.94 2.28 7.14 8.38 7.14 13.64v217.28c.01 5.26-3.19 7.67-7.13 5.4z" fill="#e4e7f2"/><path d="m386.42 401.12-280.91-162.18c-3.94-2.28-7.13-8.38-7.13-13.63v-217.31c0-5.25 3.19-7.67 7.13-5.39l280.91 162.2c3.94 2.27 7.13 8.37 7.13 13.63v217.29c0 5.27-3.19 7.67-7.13 5.39z" fill="#201d38"/><path d="m389.69 387.91-287.75-166.13.15-212.89c0-2.18 1.53-3.06 3.42-2l280.91 162.21a7.55 7.55 0 0 1 3.42 5.92z" fill="url(#a)" opacity=".3"/><path d="m276.62 142.08-19.07-11.01v-6.88l19.07 11.01z" fill="#a298e2"/><path d="m320.7 167.55-40.51-23.41v-6.88l40.51 23.41z" fill="#f4ce2c"/><path d="m276.62 164.09-19.07-11v-6.88l19.07 11z" fill="#a298e2"/><path d="m293.61 174.07-13.42-7.91v-6.88l13.42 7.91z" fill="#4d3bff"/><path d="m276.62 175.1-19.07-11.01v-6.88l19.07 11.01z" fill="#a298e2"/><path d="m302.83 190.23-22.64-13.07v-6.88l22.64 13.07z" fill="#4d3bff"/><path d="m276.62 186.1-19.07-11v-6.88l19.07 11.01z" fill="#a298e2"/><path d="m339.9 222.56-59.71-34.39v-6.88l59.71 34.4z" fill="#ff8657"/><path d="m276.62 153.09-19.07-11.01v-6.88l19.07 11.01z" fill="#a298e2"/><path d="m354.57 198.14-74.38-42.99v-6.88l74.38 42.99z" fill="#a298e2"/><path d="m276.62 197.11-19.07-11.01v-6.88l19.07 11.01z" fill="#a298e2"/><path d="m344.53 237.01-64.34-37.83v-6.88l64.34 37.83z" fill="#c33afc"/><path d="m276.62 219.13-19.07-11.01v-6.88l19.07 11.01z" fill="#a298e2"/><path d="m355.26 264.53-75.07-43.34v-6.88l75.07 43.34z" fill="#a298e2"/><path d="m276.62 230.13-19.07-11v-6.88l19.07 11z" fill="#a298e2"/><path d="m302.83 245.27-22.64-13.08v-6.87l22.64 13.07z" fill="#c33afc"/><path d="m276.62 241.14-19.07-11.01v-6.88l19.07 11.01z" fill="#a298e2"/><path d="m326.45 270.03-46.26-26.83v-6.88l46.26 26.83z" fill="#4d3bff"/><path d="m276.62 208.12-19.07-11.01v-6.88l19.07 11.01z" fill="#a298e2"/><path d="m288.53 215-8.34-4.82v-6.88l8.34 4.82z" fill="#4d3bff"/><path d="m276.62 252.15-19.07-11.01v-6.88l19.07 11.01z" fill="#a298e2"/><path d="m310.05 271.41-29.86-17.2v-6.88l29.86 17.2z" fill="#c33afc"/><path d="m276.62 274.16-19.07-11.01v-6.88l19.07 11.01z" fill="#a298e2"/><path d="m323.76 301.06-43.57-24.84v-6.88l43.57 24.84z" fill="#ff8657"/><path d="m276.62 285.17-19.07-11.01v-6.88l19.07 11.01z" fill="#a298e2"/><path d="m285.63 290.67-5.44-3.44v-6.88l5.44 3.44z" fill="#a298e2"/><path d="m276.62 296.17-19.07-11v-6.88l19.07 11z" fill="#a298e2"/><path d="m305.18 312.63-24.99-14.39v-6.88l24.99 14.39z" fill="#f4ce2c"/><path d="m276.62 263.15-19.07-11v-6.89l19.07 11.01z" fill="#a298e2"/><path d="m314.96 285.17-34.77-19.96v-6.87l34.77 19.95z" fill="#4d3bff"/><path d="m153.28 73.29-19.07-11.01v-6.88l19.07 11.01z" fill="#a298e2"/><path d="m237.88 122.13-81.03-46.78v-6.88l81.03 46.78z" fill="#c33afc"/><path d="m153.28 95.3-19.07-11.01v-6.88l19.07 11.01z" fill="#a298e2"/><path d="m210.47 128.32-53.62-30.96v-6.88l53.62 30.96z" fill="#f4ce2c"/><path d="m153.28 106.31-19.07-11.01v-6.88l19.07 11.01z" fill="#a298e2"/><path d="m223.58 146.89-66.73-38.52v-6.88l66.73 38.52z" fill="#ff8657"/><path d="m153.28 117.31-19.07-11v-6.88l19.07 11z" fill="#a298e2"/><path d="m203.32 146.21-46.47-26.83v-6.88l46.47 26.83z" fill="#a298e2"/><path d="m153.28 84.29-19.07-11.01v-6.87l19.07 11z" fill="#a298e2"/><path d="m197.36 109.75-40.51-23.39v-6.88l40.51 23.39z" fill="#4d3bff"/><path d="m153.28 128.32-19.07-11.01v-6.88l19.07 11.01z" fill="#a298e2"/><path d="m180.68 144.14-23.83-13.76v-6.88l23.83 13.76z" fill="#c33afc"/><path d="m153.28 150.33-19.07-11.01v-6.87l19.07 11z" fill="#a298e2"/><path d="m231.92 195.74-75.07-43.34v-6.88l75.07 43.34z" fill="#f4ce2c"/><path d="m153.28 161.34-19.07-11.01v-6.88l19.07 11.01z" fill="#a298e2"/><path d="m179.49 176.47-22.64-13.07v-6.88l22.64 13.07z" fill="#ff8657"/><path d="m153.28 172.35-19.07-11.01v-6.88l19.07 11.01z" fill="#a298e2"/><path d="m223.58 212.93-66.73-38.52v-6.88l66.73 38.53z" fill="#a298e2"/><path d="m153.28 139.33-19.07-11.01v-6.88l19.07 11.01z" fill="#a298e2"/><path d="m220 177.85-63.15-36.46v-6.88l63.15 36.46z" fill="#4d3bff"/><path d="m153.28 183.35-19.07-11.01v-6.87l19.07 11z" fill="#a298e2"/><path d="m165.19 190.23-8.34-4.81v-6.88l8.34 4.81z" fill="#c33afc"/><path d="m153.28 205.37-19.07-11.01v-6.88l19.07 11.01z" fill="#a298e2"/><path d="m172.34 216.37-15.49-8.94v-6.88l15.49 8.94z" fill="#f4ce2c"/><path d="m153.28 216.37-19.07-11v-6.88l19.07 11z" fill="#a298e2"/><path d="m197.36 241.83-40.51-23.39v-6.88l40.51 23.39z" fill="#ff8657"/><path d="m153.28 227.38-19.07-11.01v-6.88l19.07 11.01z" fill="#a298e2"/><path d="m221.19 266.59-64.34-37.15v-6.88l64.34 37.15z" fill="#a298e2"/><path d="m153.28 194.36-19.07-11.01v-6.88l19.07 11.01z" fill="#a298e2"/><path d="m237.88 243.2-81.03-46.78v-6.88l81.03 46.78z" fill="#4d3bff"/><ellipse cx="299.75" cy="475.84" fill="#d6d8e5" opacity=".4" rx="41.84" ry="24.16"/><path d="m345.7 472.41v-64.41l-83.51 2.1.18 59.4c-1.56 7.15 2.4 14.62 11.91 20.11 16.34 9.43 42.83 9.44 59.17 0 8.21-4.77 12.29-10.99 12.25-17.2z" fill="#a6ce28"/><ellipse cx="303.86" cy="407.97" fill="#bcd64d" rx="41.84" ry="24.16"/><path d="m339.09 408c0 3.93-3.27 8.06-8.95 11.35-6.2 3.56-14.67 5.76-23.59 6.12-.89 0-1.78.06-2.68.06-9.9 0-19.47-2.26-26.28-6.18-5.68-3.29-8.95-7.42-8.95-11.35s3.27-8.06 8.95-11.35c6.81-3.93 16.38-6.19 26.27-6.19.9 0 1.8 0 2.69.06 8.92.36 17.39 2.56 23.59 6.13 5.68 3.26 8.95 7.35 8.95 11.35z" fill="#28221c"/><path d="m339.09 408c0 3.93-3.27 8.06-8.95 11.35-6.2 3.56-14.67 5.76-23.59 6.12-8.92-.36-17.4-2.56-23.59-6.12-5.69-3.35-8.96-7.45-8.96-11.35s3.26-8.06 8.94-11.35c6.2-3.57 14.68-5.77 23.6-6.13 8.92.36 17.39 2.56 23.59 6.13 5.69 3.26 8.96 7.35 8.96 11.35z" fill="#fff" opacity=".07"/><path d="m339.58 437.81-8.88-5.14-4.32 2.5 4.32 2.5v1.64l8.33 4.8-.25 1.54c1.21 1 5.52 9 5.52 9l.3-.28v20.73c0 5.44-3.19 3.6-4.55 2.81l-9.35-5.4-4.32 2.49 4.32 2.49v1.64l9.35 5.4a14.4 14.4 0 0 0 3 1.36l-.56 2.6 4.84-2.73h.07.07c2-1.18 2.85-4.05 2.85-7.27v-21.75c.04-9.19-7.01-16.4-10.74-18.93z" fill="#8da01f"/><path d="m335.73 487.06-9.35-5.4v-6.66l9.35 5.4c1.36.78 4.55 2.63 4.55-2.82v-21.65c0-5.12-4.63-8.66-5.42-9.22l-8.48-4.9v-6.64l8.88 5.14c3.74 2.53 10.74 9.75 10.74 18.94v21.67c0 5.85-2.67 10.52-10.27 6.14z" fill="#99b524"/><ellipse cx="41.37" cy="355.37" fill="#d6d8e5" opacity=".4" rx="28.81" ry="16.64"/><ellipse cx="45.48" cy="352.29" fill="#d6d8e5" rx="28.81" ry="16.64"/><path d="m6.91 295.41 10.08 58.03h57.23l9.83-57.61z" fill="#d6d8e5"/><ellipse cx="45.48" cy="294.69" fill="#e4e6ef" rx="38.61" ry="22.29"/><path d="m45.48 312.06c-9.46 0-18.28-2.08-24.84-5.87-5.63-3.24-8.85-7.44-8.85-11.5s3.22-8.26 8.85-11.5c6.55-3.79 15.38-5.87 24.84-5.87s18.29 2.08 24.84 5.87c5.63 3.24 8.85 7.44 8.85 11.5s-3.17 8.31-8.85 11.5c-6.55 3.81-15.32 5.87-24.84 5.87z" fill="#28221c"/><path d="m62.09 277.13a48.79 48.79 0 0 0 -16.38-40.13l-.11-.11v.21a48.78 48.78 0 0 0 -16.39 40.15l-22.09-2.13c9.32 35.11 38.59 32.09 38.59 32.09v-.07c2.21.17 29.51 1.58 38.44-32.1z" fill="#99b524"/><path d="m45.71 307.21s-2-27.34-38.68-45.75c-.03 0-8.69 45.42 38.68 45.75z" fill="#a6ce28"/><path d="m45.48 307.21s2-27.34 38.68-45.75c0 0 8.69 45.42-38.68 45.75z" fill="#a6ce28"/></svg>